#!OML:ASF F:\VICON\USERDATA\INSTALL\Justin_Nancy\Justin_Nancy.ASF
:FULLY-SPECIFIED
:DEGREES
157
root 6.07586 16.3733 2.35529 -141.892 -82.4094 153.742
lowerback 9.40318 1.45174 0.825159
upperback 0.430905 2.05867 1.48034
thorax -4.8512 0.998952 0.801071
lowerneck -19.1283 -3.03004 -10.1652
upperneck 19.6879 -2.54919 5.40724
head 9.59392 -1.37415 3.21097
rclavicle 3.69739e-014 4.92986e-014
rhumerus -25.3473 8.05851 -88.2399
rradius 55.5776
rwrist 3.67204
rhand -15.2173 13.0746
rfingers 7.12502
rthumb 10.9552 -16.6196
lclavicle 3.69739e-014 4.92986e-014
lhumerus -33.164 20.4752 70.9764
lradius 25.2375
lwrist -5.27695
lhand -21.7706 26.4818
lfingers 7.12502
lthumb 4.63033 56.4112
rfemur 6.40513 7.85036 27.6922
rtibia 27.6611
rfoot -21.1786 -2.20218
rtoes -2.75286
lfemur -37.5782 13.6512 -22.6057
ltibia 20.4682
lfoot -17.7309 9.26222
ltoes -16.5279
158
root 5.848 16.3861 2.4811 -145.082 -81.9938 156.073
lowerback 9.73764 1.4826 1.40732
upperback 0.583508 2.15279 1.29996
thorax -4.85119 1.02865 0.267403
lowerneck -18.9583 -2.98666 -9.83157
upperneck 20.005 -2.63908 5.46191
head 9.67653 -1.39557 3.16764
rclavicle -1.07344e-014 5.56597e-015
rhumerus -25.9752 6.18257 -87.7164
rradius 54.0372
rwrist 4.98698
rhand -14.6563 12.6006
rfingers 7.12502
rthumb 11.4962 -17.0642
lclavicle -1.07344e-014 5.56597e-015
lhumerus -32.7692 18.857 71.2372
lradius 25.8103
lwrist -3.42574
lhand -22.3268 27.0849
lfingers 7.12502
lthumb 4.09321 57.0253
rfemur 7.63009 7.94459 27.1744
rtibia 28.404
rfoot -19.9412 -1.14588
rtoes -2.71693
lfemur -36.5539 12.9903 -22.4252
ltibia 22.5765
lfoot -17.765 9.2396
ltoes -17.8188
159
root 5.61743 16.4356 2.46449 -149.048 -79.9841 159.742
lowerback 9.47959 2.22617 -1.12424
upperback 0.571207 2.88305 1.53885
thorax -4.85582 1.44963 1.84425
lowerneck -18.6778 -2.9157 -9.76603
upperneck 20.2093 -2.64336 5.6175
head 9.69751 -1.38573 3.21492
rclavicle 6.75868e-015 2.94201e-014
rhumerus -26.717 4.71549 -86.9442
rradius 52.494
rwrist 5.73242
rhand -13.6179 12.584
rfingers 7.12502
rthumb 12.4975 -17.0223
lclavicle 6.75868e-015 2.94201e-014
lhumerus -32.6645 17.8766 71.4147
lradius 26.3267
lwrist -2.35275
lhand -23.5998 27.5126
lfingers 7.12502
lthumb 2.86381 57.4732
rfemur 8.18054 10.1745 26.7186
rtibia 29.4584
rfoot -17.943 -1.104
rtoes -4.75652
lfemur -35.7435 14.2638 -22.3917
ltibia 24.1044
lfoot -20.277 9.23174
ltoes -20.261
160
root 5.39264 16.4952 2.48821 -152.531 -78.8737 162.886
lowerback 9.47308 2.60328 -2.57234
upperback 0.456314 3.25451 1.95785
thorax -5.09665 1.67537 3.0414
lowerneck -18.1947 -2.7692 -9.27111
upperneck 20.3384 -2.53573 5.13838
head 9.63145 -1.36496 2.97978
rclavicle -7.95139e-016 1.59028e-015
rhumerus -27.6904 3.995 -85.9498
rradius 51.0747
rwrist 6.13355
rhand -13.0423 12.2136
rfingers 7.12502
rthumb 13.0524 -17.358
lclavicle -7.95139e-016 1.59028e-015
lhumerus -32.9921 18.7653 70.9915
lradius 26.7666
lwrist -2.46617
lhand -23.61 27.1677
lfingers 7.12502
lthumb 2.85402 57.1284
rfemur 8.37115 10.8361 26.3886
rtibia 30.762
rfoot -15.3399 -0.19357
rtoes -8.07463
lfemur -34.904 14.109 -21.5268
ltibia 25.4294
lfoot -22.2087 9.17267
ltoes -21.869
161
root 5.1682 16.5431 2.54486 -153.205 -78.0821 163.153
lowerback 9.56007 2.85167 -3.55043
upperback 0.397321 3.48668 2.08467
thorax -5.29363 1.82028 3.68677
lowerneck -18.0673 -2.73811 -9.0794
upperneck 20.6502 -2.55359 5.02409
head 9.71472 -1.38205 2.90924
rclavicle 9.93923e-015 3.97569e-014
rhumerus -28.6875 3.39738 -84.9086
rradius 49.8379
rwrist 6.07111
rhand -13.8527 11.2559
rfingers 7.12502
rthumb 12.2711 -18.3641
lclavicle 9.93923e-015 3.97569e-014
lhumerus -33.1116 19.8895 70.4961
lradius 27.2706
lwrist -2.23277
lhand -22.771 26.5101
lfingers 7.12502
lthumb 3.66428 56.4583
rfemur 8.14563 11.2968 25.7285
rtibia 32.7062
rfoot -12.5048 0.728124
rtoes -10.5012
lfemur -33.9806 13.4057 -21.161
ltibia 26.3237
lfoot -22.0986 8.89856
ltoes -21.6793
162
root 4.94615 16.5695 2.62002 -154.036 -78.1482 163.756
lowerback 9.57713 2.79869 -3.62715
upperback 0.276746 3.41692 2.23558
thorax -5.43802 1.79529 3.89636
lowerneck -18.0214 -2.8044 -9.45295
upperneck 20.8588 -2.67648 5.51754
head 9.80133 -1.41904 3.1328
rclavicle 2.38542e-015 -9.54166e-015
rhumerus -29.5332 2.31194 -83.7757
rradius 48.4179
rwrist 6.02693
rhand -14.621 10.6182
rfingers 7.12502
rthumb 11.5302 -19.0447
lclavicle 2.38542e-015 -9.54166e-015
lhumerus -33.0614 20.0759 70.4322
lradius 27.7612
lwrist -1.22399
lhand -22.6188 26.4584
lfingers 7.12502
lthumb 3.81127 56.404
rfemur 7.3245 11.4116 25.5994
rtibia 35.2002
rfoot -9.25807 1.37753
rtoes -10.5823
lfemur -33.3465 12.2205 -20.6096
ltibia 27.0554
lfoot -21.6881 8.24338
ltoes -20.6964
163
root 4.73002 16.6085 2.72615 -149.314 -77.2277 158.391
lowerback 9.99074 2.91639 -4.7584
upperback 0.28295 3.40737 1.74007
thorax -5.70019 1.81973 3.99764
lowerneck -18.0999 -2.8715 -9.51104
upperneck 20.9516 -2.82594 5.82479
head 9.86587 -1.45874 3.23271
rclavicle 9.54166e-015 -1.59028e-014
rhumerus -30.1282 -0.168975 -82.6149
rradius 46.6672
rwrist 7.58547
rhand -14.26 10.8377
rfingers 7.12502
rthumb 11.8784 -18.8054
lclavicle 9.54166e-015 -1.59028e-014
lhumerus -32.7491 20.073 70.335
lradius 28.0403
lwrist -0.543428
lhand -22.5227 26.3899
lfingers 7.12502
lthumb 3.90407 56.3339
rfemur 6.37685 11.3762 23.4411
rtibia 38.2116
rfoot -5.43674 2.70637
rtoes -11.1603
lfemur -32.0903 10.8685 -21.8688
ltibia 27.5105
lfoot -21.9237 7.39747
ltoes -22.0744
164
root 4.50881 16.6383 2.82962 -145.741 -77.1079 154.666
lowerback 9.81129 2.77434 -5.04183
upperback 0.249901 3.17293 1.30869
thorax -5.59877 1.70529 3.74561
lowerneck -17.9165 -2.99846 -9.58526
upperneck 20.548 -3.08659 6.26637
head 9.71892 -1.52937 3.36016
rclavicle -6.36111e-015 -7.95139e-015
rhumerus -30.6595 -3.11646 -81.4698
rradius 44.9374
rwrist 9.34367
rhand -13.8586 10.8989
rfingers 7.12502
rthumb 12.2655 -18.7214
lclavicle -6.36111e-015 -7.95139e-015
lhumerus -32.209 19.9686 70.163
lradius 28.2345
lwrist -0.17656
lhand -21.7518 26.4178
lfingers 7.12502
lthumb 4.64841 56.3468
rfemur 4.72658 10.8022 21.8624
rtibia 41.4417
rfoot -0.953938 4.16996
rtoes -8.46304
lfemur -31.4592 9.69421 -22.799
ltibia 27.9163
lfoot -22.9875 6.84856
ltoes -24.1222
165
root 4.28177 16.6603 2.93229 -143.433 -77.5348 152.328
lowerback 9.4251 2.53495 -4.70104
upperback 0.255784 2.90106 1.08646
thorax -5.31619 1.55408 3.37559
lowerneck -17.7706 -3.21363 -9.75795
upperneck 20.0542 -3.43503 6.73392
head 9.56073 -1.64459 3.49932
rclavicle -2.78299e-015 7.95139e-015
rhumerus -31.3165 -5.53568 -80.3877
rradius 43.5554
rwrist 9.06717
rhand -14.0294 10.2819
rfingers 7.12502
rthumb 12.1007 -19.3482
lclavicle -2.78299e-015 7.95139e-015
lhumerus -31.5141 19.6178 70.2367
lradius 28.3587
lwrist 0.432808
lhand -21.5364 25.9452
lfingers 7.12502
lthumb 4.85644 55.8695
rfemur 2.92324 9.93205 20.9516
rtibia 44.7386
rfoot 3.52301 5.08314
rtoes -6.64624
lfemur -30.9152 8.62767 -23.243
ltibia 28.2793
lfoot -23.2038 6.80802
ltoes -24.6315
166
root 4.05485 16.6785 3.02495 -140.846 -78.1701 149.862
lowerback 8.84353 2.17033 -4.12716
upperback 0.204401 2.49283 0.840139
thorax -4.96593 1.33129 2.87111
lowerneck -17.9515 -3.27068 -9.44846
upperneck 20.1601 -3.57918 6.68721
head 9.63727 -1.69101 3.41232
rclavicle -1.41137e-014 -7.95139e-016
rhumerus -32.0339 -7.70987 -79.3893
rradius 42.1893
rwrist 8.56763
rhand -14.6241 9.58185
rfingers 7.12502
rthumb 11.5272 -20.0812
lclavicle -1.41137e-014 -7.95139e-016
lhumerus -30.9819 19.5601 70.0446
lradius 28.5586
lwrist 0.766116
lhand -21.4884 25.7773
lfingers 7.12502
lthumb 4.90278 55.7005
rfemur 0.916486 8.96446 20.4608
rtibia 48.0959
rfoot 6.74214 5.2493
rtoes -4.50282
lfemur -30.5321 7.60784 -23.6408
ltibia 28.5265
lfoot -22.5981 6.79879
ltoes -25.8178
167
root 3.84001 16.688 3.09673 -138.863 -79.3599 148.221
lowerback 8.24107 1.56306 -3.10905
upperback 0.0160669 1.80209 0.661414
thorax -4.72669 0.965399 2.2157
lowerneck -17.9321 -3.16336 -8.92698
upperneck 20.06 -3.55938 6.62059
head 9.58421 -1.64831 3.30275
rclavicle -1.47101e-014 2.62396e-014
rhumerus -32.8244 -9.32369 -78.4731
rradius 40.8066
rwrist 8.53416
rhand -15.3375 9.0805
rfingers 7.12502
rthumb 10.8393 -20.6198
lclavicle -1.47101e-014 2.62396e-014
lhumerus -30.6594 19.4598 69.4621
lradius 28.8044
lwrist 1.19895
lhand -21.1935 25.7046
lfingers 7.12502
lthumb 5.18752 55.6212
rfemur -1.33783 7.96765 20.8912
rtibia 51.4811
rfoot 8.6598 4.95941
rtoes -3.90528
lfemur -30.4689 6.77288 -23.4916
ltibia 28.7188
lfoot -22.1967 6.59328
ltoes -27.6729
168
root 3.63663 16.7081 3.16879 -133.64 -78.8561 142.418
lowerback 8.60005 1.44003 -3.76673
upperback 0.0831453 1.52398 -0.00659712
thorax -4.84045 0.833891 1.91842
lowerneck -17.6923 -3.23829 -8.87125
upperneck 19.6257 -3.78897 7.09587
head 9.41607 -1.69782 3.42383
rclavicle 3.27995e-014 -3.18055e-015
rhumerus -33.7775 -12.1843 -77.4473
rradius 39.5355
rwrist 8.86231
rhand -15.6741 8.66036
rfingers 7.12502
rthumb 10.5145 -21.0567
lclavicle 3.27995e-014 -3.18055e-015
lhumerus -29.9935 18.4287 69.2743
lradius 29.0053
lwrist 2.11142
lhand -20.9754 25.6512
lfingers 7.12502
lthumb 5.39812 55.5625
rfemur -2.77513 7.3377 19.4019
rtibia 54.9209
rfoot 9.47344 4.77526
rtoes -3.25459
lfemur -29.2481 6.94766 -25.0482
ltibia 28.8323
lfoot -22.4859 6.86643
ltoes -28.7537
169
root 3.43101 16.7273 3.24316 -132.469 -78.4968 140.58
lowerback 9.0054 1.49541 -4.01811
upperback 0.228937 1.53601 -0.287272
thorax -4.91581 0.838577 1.75917
lowerneck -17.5839 -3.30011 -8.83043
upperneck 19.4595 -3.90456 7.17508
head 9.34955 -1.7403 3.42684
rclavicle -2.78299e-015 1.43125e-014
rhumerus -34.7765 -15.4843 -75.9975
rradius 38.3006
rwrist 9.61148
rhand -15.9299 8.44747
rfingers 7.12502
rthumb 10.2678 -21.2819
lclavicle -2.78299e-015 1.43125e-014
lhumerus -29.4173 17.741 69.4324
lradius 29.2332
lwrist 2.4955
lhand -20.5785 25.7318
lfingers 7.12502
lthumb 5.78131 55.6329
rfemur -4.14073 6.92786 18.6318
rtibia 58.3511
rfoot 9.45536 4.06425
rtoes 3.05677
lfemur -27.7473 8.057 -25.9734
ltibia 28.6581
lfoot -19.8703 7.567
ltoes -33.3403
170
root 3.22434 16.7378 3.325 -135.309 -78.6869 142.877
lowerback 9.35784 1.45953 -3.29666
upperback 0.304821 1.55416 -0.194384
thorax -5.01753 0.831749 1.4419
lowerneck -17.3988 -3.27567 -8.84587
upperneck 19.4019 -3.84189 7.00925
head 9.28714 -1.73372 3.37924
rclavicle -1.49089e-014 -6.36111e-015
rhumerus -35.5549 -16.9737 -74.5485
rradius 36.9642
rwrist 9.7481
rhand -16.8567 7.8642
rfingers 7.12502
rthumb 9.37361 -21.9074
lclavicle -1.49089e-014 -6.36111e-015
lhumerus -29.0915 17.606 69.4808
lradius 29.4236
lwrist 2.74416
lhand -20.2885 25.827
lfingers 7.12502
lthumb 6.06125 55.7203
rfemur -5.54712 6.70012 19.0488
rtibia 61.6537
rfoot 8.81305 3.99698
rtoes 1.20177
lfemur -26.0755 9.29033 -25.7997
ltibia 28.0627
lfoot -26.6332 8.61206
ltoes -26.4031
171
root 3.0116 16.7518 3.3539 -130.97 -77.8395 138.481
lowerback 9.01325 1.45604 -4.67797
upperback 0.239008 1.3929 -0.620401
thorax -4.90963 0.776722 1.80147
lowerneck -17.4707 -3.33261 -9.1106
upperneck 19.551 -3.91171 7.26387
head 9.36919 -1.75941 3.50579
rclavicle -2.3059e-014 -2.54444e-014
rhumerus -36.3415 -18.086 -73.5139
rradius 35.647
rwrist 8.74922
rhand -17.6151 7.19438
rfingers 7.12502
rthumb 8.64178 -22.6087
lclavicle -2.3059e-014 -2.54444e-014
lhumerus -28.43 16.979 69.3025
lradius 29.3614
lwrist 2.86256
lhand -20.1088 25.9621
lfingers 7.12502
lthumb 6.23477 55.8504
rfemur -7.71353 6.40151 17.737
rtibia 64.9492
rfoot 7.60279 3.4389
rtoes -0.966133
lfemur -24.8939 10.1503 -27.4161
ltibia 27.2242
lfoot -27.0406 9.47432
ltoes -27.3642
